# xmcd
#
# Track frame offsets:
#	150
#	24059
#	46711
#	67495
#	84379
#	109317
#	124927
#	138149
#	149716
#	165417
#	180224
#	198855
#	217034
#	242308
#	251779
# Disc length: 3571 seconds
# Revision: 1
# Processed by: cddbd v1.5.2PL0 Copyright (c) Steve Scherf et al.
#
# Submitted via: libkcddb 0.31
#
DISCID=cd0df10f
DTITLE=Ralph de Jongh - Emotion
DYEAR=2007
DGENRE=Acoustic
TTITLE0=Harry
TTITLE1=Ride and Sing
TTITLE2=Man
TTITLE3=Flesh
TTITLE4=Sympathy for the devil
TTITLE5=Worry Wise
TTITLE6=Dance
TTITLE7=I'm Blind
TTITLE8=Low Defile
TTITLE9=My Friend
TTITLE10=Been down so long
TTITLE11=Don't you forget
TTITLE12=Grey Guitar
TTITLE13=We used
TTITLE14=You gotta move
EXTD=
EXTT0=
EXTT1=
EXTT2=
EXTT3=
EXTT4=
EXTT5=
EXTT6=
EXTT7=
EXTT8=
EXTT9=
EXTT10=
EXTT11=
EXTT12=
EXTT13=
EXTT14=
PLAYORDER=
